<?xml version="1.0" encoding="utf-8"?>
<!-- Generator: Adobe Illustrator 18.1.0, SVG Export Plug-In . SVG Version: 6.00 Build 0)  -->
<!DOCTYPE svg PUBLIC "-//W3C//DTD SVG 1.1//EN" "http://www.w3.org/Graphics/SVG/1.1/DTD/svg11.dtd">
<svg version="1.1" id="Layer_1" xmlns="http://www.w3.org/2000/svg" xmlns:xlink="http://www.w3.org/1999/xlink" x="0px" y="0px"
	 viewBox="0 0 792 612" enable-background="new 0 0 792 612" xml:space="preserve">
<circle fill="#FFFFFF" cx="247.7" cy="337.3" r="235.5"/>
<g>
	<g>
		<g>
			<g>
				<g opacity="0.8">
					<g>
						<path fill="#D2D2D2" d="M371.8,182.2c-1.8-1.4-3.6-2.8-5.3-4.2l-1.3-1l-1.3-0.9c-0.9-0.7-1.8-1.3-2.7-1.9
							c-0.9-0.7-1.8-1.3-2.7-1.9l-1.3-0.9l-1.4-0.8c-1.9-1.1-3.7-2.4-5.6-3.5l-1.4-0.8l-1.4-0.8c-0.9-0.6-1.9-1-2.8-1.6
							c-0.9-0.6-1.9-1-2.8-1.6l-1.4-0.8l-1.4-0.8c-3.9-1.9-7.6-3.9-11.5-5.5c-7.7-3.5-15.6-6.2-23.7-8.6l-6-1.6c-1-0.3-2-0.6-3-0.8
							l-3.1-0.7c-2.1-0.5-4.1-0.8-6.1-1.3c-2.1-0.4-4.1-0.7-6.2-1c-25.7-4-51-3.3-75.6,1.8c-24.6,5.2-48.9,15-71.6,30.7
							c-11.3,7.8-21.3,16.5-30.4,26S84.4,219.5,77.2,231c-14.7,22.5-25.5,49.6-29.8,78.6c-2.2,14.5-2.6,29.5-1.5,44.6l0.2,2.8
							l0.3,2.8c0.2,1.9,0.5,3.8,0.7,5.7c0.2,1.9,0.6,3.8,0.8,5.7c0.3,1.9,0.6,3.8,0.9,5.7c1.6,7.4,3.3,15,5.8,22.3
							c0.5,1.6,1.1,4,2.1,6.5c0.9,2.5,2,5.4,3,7.9c2.3,5,4.2,9,4.4,7.8c12,27.3,30.1,51.5,52.2,70.7c11,9.6,23.2,17.9,36,24.8
							c12.8,6.9,26.5,12.2,40.4,15.9c11.7,3.2,23.9,5.8,36.4,7.2c12.3,1.4,25,1.6,37.1,0.4c9.9-1,19.7-2.6,29.3-4.9
							c9.6-2.4,19-5.2,28.2-8.7c2.3-0.8,4.5-1.9,6.8-2.8c1.1-0.5,2.3-0.9,3.4-1.4l3.3-1.6l3.3-1.6c1.1-0.6,2.3-1,3.3-1.6l6.4-3.5
							c1.1-0.6,2.2-1.2,3.2-1.9l3.1-1.9l3.1-1.9c1-0.7,2-1.4,3-2.1l6-4.1l5.8-4.5c2.2-1.7,5.2-4.7,8.3-7.5c1.6-1.4,2.9-2.9,4.2-4.2
							c1.3-1.3,2.5-2.4,3.2-3.2c19.6-18.4,34.3-40.3,44-63.8c9.8-23.5,14.7-48.4,15.3-73.5c0-2.5,0.1-4.9,0.1-7.2
							c0-2.4-0.2-4.6-0.2-6.9c0-1.1-0.1-2.3-0.1-3.3c-0.1-1.1-0.2-2.2-0.3-3.3c-0.2-2.2-0.4-4.3-0.6-6.5c-0.3-2.2-0.6-4.2-0.8-6.4
							c-0.1-1-0.3-2.2-0.4-3.2c-0.2-1-0.4-2.2-0.6-3.2c-0.4-2.2-0.8-4.3-1.1-6.6c-0.5-2.2-0.9-4.4-1.5-6.8c-0.5-0.8-0.8-2.3-1.5-4.1
							c-0.6-1.9-1.3-4.2-2.1-6.9c-0.5-1.7-1.4-4.3-2.4-7.7c-0.3-0.8-0.6-1.7-0.8-2.6c-0.4-0.9-0.7-1.9-1-2.8c-0.8-2-1.5-4.1-2.4-6.4
							c-3.5-8.9-8.4-19.3-14.1-29.1c-0.8-1.2-1.4-2.5-2.2-3.6c-0.8-1.2-1.4-2.5-2.2-3.6c-1.5-2.3-3-4.5-4.5-6.8
							c-1.5-2.2-3.1-4.1-4.5-6.1c-0.8-0.9-1.4-2-2.2-2.8c-0.8-0.9-1.4-1.8-2.2-2.6c-1.4-1.7-2.6-3.3-3.9-4.7
							c-1.2-1.4-2.4-2.6-3.3-3.8c-2-2.2-3.3-3.8-3.9-4.5c-0.3-0.4,1.2,1.1,4.1,4.1c1.4,1.5,3.2,3.2,5.1,5.5c0.9,1.1,2,2.3,3.1,3.5
							c0.6,0.7,1.1,1.2,1.7,1.9c0.6,0.7,1.1,1.4,1.7,2.1c9.1,11.3,20.3,27.9,28,46.2l1.5,3.4c0.5,1.1,0.8,2.3,1.3,3.5
							c0.8,2.4,1.8,4.6,2.6,6.9c0.8,2.4,1.5,4.6,2.3,6.9c0.2,0.6,0.4,1.1,0.6,1.7s0.3,1.1,0.5,1.7c0.3,1.1,0.7,2.3,0.9,3.4
							c1.3,4.4,2.2,8.9,3.1,13c0.5,2.1,0.8,4.1,1.1,6c0.3,2,0.8,3.9,0.9,5.7c0.2,1.8,0.5,3.6,0.7,5.3c0.2,1.7,0.5,3.2,0.6,4.7
							c0.3,2.9,0.5,5.5,0.7,7.5c0.3,4.1,0.3,6.4,0.4,6c0-0.5,0-2.5-0.1-5.7c-0.1-1.6-0.2-3.5-0.4-5.6c-0.1-1-0.2-2.2-0.2-3.3
							c-0.1-1.1-0.3-2.4-0.4-3.7c-1-10.2-3.5-23.4-7.4-36.4c-3.9-13-9.3-25.6-14.4-35.3c-1.2-2.5-2.5-4.6-3.7-6.7
							c-0.6-1-1.1-2-1.6-2.9c-0.6-0.8-1-1.7-1.6-2.5c-2-3.1-3.3-5.3-3.9-6.3c6.7,9.8,12.3,19.8,16.9,29.7c0.6,1.2,1.1,2.5,1.7,3.7
							c0.6,1.2,1.1,2.5,1.6,3.7c0.9,2.5,2,4.9,2.9,7.4c0.8,2.5,1.7,4.9,2.5,7.3s1.5,4.8,2.2,7.2c1.5,4.7,2.5,9.4,3.6,14
							c0.5,2.3,0.8,4.5,1.3,6.8c0.2,1.1,0.4,2.3,0.7,3.3c0.2,1.1,0.3,2.2,0.5,3.3c0.3,2.2,0.6,4.3,0.8,6.5c0.2,2.2,0.4,4.2,0.6,6.3
							c0.5,4.1,0.5,8.2,0.7,12.2c0.1,2,0,4,0,5.8s0,3.8,0,5.7c-0.2,3.7-0.4,7.4-0.7,10.7c-0.4,3.5-0.7,6.8-1,10.1
							c-0.5,3.2-0.9,6.3-1.4,9.3c-2.1,12-5.1,22.1-7.8,30.4c-1.5,4.1-2.7,7.9-4.1,11.3c-1.4,3.4-2.5,6.4-3.9,9
							c-1.2,2.6-2.3,4.9-3.2,6.9c-1,1.9-1.9,3.6-2.5,4.9c-1.4,2.6-2.2,4.1-2.5,4.6c-0.3,0.5,0.1,0,0.9-1.4c0.8-1.4,2-3.7,3.7-6.7
							c0.8-1.5,1.7-3.2,2.6-5.1c0.9-1.9,1.9-4,3-6.2c4-9.1,8.5-20.8,11.8-34.4c3.4-13.6,5.8-28.9,6-44.6c0.4-15.6-1.1-31.4-4.1-45.8
							c-1.6-9.1-4.3-19.8-9-32.2c-4.6-12.3-11.2-26.3-20.7-41.2c0.8,1.1,1.5,2.3,2.4,3.5c0.8,1.2,1.7,2.5,2.5,3.9
							c0.8,1.4,1.7,2.8,2.5,4.2c0.8,1.5,1.8,2.9,2.6,4.5c3.5,6.2,7,13.1,9.8,19.9c5.8,13.5,9.4,26.4,10.5,31.4
							c2.6,11.5,3.8,19.8,4.5,26.6c0.8,6.8,0.9,12,1.2,17.4c0,2.7,0,5.5,0,8.6c-0.1,3-0.4,6.4-0.6,10.2c-0.8,7.6-1.8,17.3-5,30.5
							c-2.7,10.7-6.6,23.3-12.3,36.2c-5.6,12.8-12.9,26-21.4,38c-8.5,12.1-18.2,23-27.9,32.1c-9.7,9.1-19.3,16.3-27.2,21.7
							c0.5-0.4,1-0.8,1.6-1.1c0.6-0.4,1.1-0.8,1.7-1.3c1.1-0.8,2.4-1.8,3.7-2.8c0.7-0.5,1.3-1,2-1.5c0.4-0.3,0.7-0.6,1-0.8
							c0.4-0.3,0.7-0.6,1-0.8c1.3-1.1,2.7-2.4,4.2-3.6c2.9-2.4,5.8-5.3,9-8.1c0.8-0.8,1.6-1.4,2.3-2.2c0.8-0.8,1.5-1.5,2.3-2.3
							c1.5-1.5,3-3.1,4.6-4.7c1.5-1.6,2.9-3.3,4.4-5s3-3.3,4.3-5.1c2.8-3.5,5.7-6.9,8.2-10.5c1.3-1.8,2.6-3.5,3.8-5.2
							c1.2-1.8,2.4-3.5,3.5-5.2c2.4-3.3,4.3-6.7,6.2-9.7c-2.2,3.3-4.1,6.5-6.2,9.3c-2.1,2.8-3.9,5.7-5.9,8.1
							c-0.9,1.2-1.9,2.5-2.8,3.7s-1.8,2.4-2.7,3.5c-1.9,2.3-3.7,4.3-5.4,6.4c-1.7,2-3.5,3.9-5.2,5.8c-0.8,0.9-1.7,1.8-2.5,2.7
							c-0.8,0.8-1.7,1.7-2.5,2.5c-1.7,1.7-3.3,3.4-4.9,5c-1.7,1.6-3.3,3.1-5,4.7c-3.3,3.2-6.9,6-10.6,9.1c-1.9,1.5-3.9,3-5.9,4.5
							c-1,0.8-2.1,1.5-3.1,2.4c-1.1,0.8-2.3,1.5-3.4,2.3c-9.2,6.1-20.6,12.7-36,18.7c-5.8,2.3-12.4,4.7-19.9,7
							c-1.8,0.5-3.6,0.8-5.4,1.3c-1.8,0.5-3.6,0.8-5.5,1.1c-1.9,0.4-3.8,0.8-5.7,1.1c-2,0.3-4.1,0.6-6.2,0.9
							c-27,4.3-52.9,3.6-78-1.4c-25-5.1-49.1-14.5-71.6-29.4c2,1.2,3.5,2.4,5,3.5c0.8,0.6,1.5,1.1,2.4,1.8c0.8,0.6,1.8,1.1,2.7,1.7
							c1.2,0.8,2.5,1.5,3.8,2.2c1.2,0.8,2.5,1.5,3.8,2.1c2.5,1.3,5.1,2.6,7.5,3.9c5.1,2.4,10.2,4.7,15.4,6.5c10.4,3.9,20.7,7,31.5,9
							c10.7,2.1,21.7,3.4,33,4c11.3,0.4,23.1,0,35.3-1.3c4.7-0.4,10.3-1.6,15.8-2.7c2.7-0.8,5.6-1.4,8.2-2.1c1.3-0.3,2.6-0.8,4-1.1
							c1.3-0.4,2.5-0.8,3.7-1c1.2-0.4,2.5-0.7,3.7-1c1.2-0.4,2.4-0.8,3.6-1.1c2.4-0.8,4.7-1.4,7-2.3c4.5-1.7,9.1-3.1,13.3-5
							c8.8-3.5,17-7.6,25.3-12.3c-8,4.9-16.7,9.8-26,13.8c-9.3,4.1-19.1,7.6-29.2,10.2c-20.3,5.5-41.8,7.6-62.1,7
							c-2.1,0-4.3-0.1-6.6-0.2c-2.3-0.1-4.5-0.1-6.8-0.3c-2.3-0.2-4.4-0.3-6.4-0.5c-1-0.1-2-0.1-2.9-0.2c-0.9-0.1-1.8-0.2-2.6-0.3
							c2.4,0.5,4.7,0.7,7.1,0.9l3.5,0.5c1.1,0.2,2.4,0.3,3.6,0.4l7.1,0.6l1.8,0.1h1.8l3.6,0.1c4.7,0.2,9.5,0,14.2-0.1
							c2.4-0.1,4.7-0.3,7.2-0.5l3.6-0.3c1.2-0.1,2.4-0.3,3.6-0.4c16.6-2,34.2-6,51.2-12.7c8.6-3.2,16.9-7.4,24.9-11.6
							c2-1.1,4-2.3,5.9-3.5c0.9-0.6,2-1.1,2.9-1.7l2.8-1.9c1.9-1.2,3.8-2.5,5.8-3.7c1.8-1.3,3.7-2.6,5.5-4c0.9-0.7,1.8-1.3,2.7-2
							s1.8-1.4,2.6-2.1c1.7-1.4,3.5-2.7,5.2-4.1c0.8-0.7,1.7-1.4,2.5-2.2c0.8-0.8,1.6-1.4,2.5-2.2c1.6-1.4,3.3-2.8,4.8-4.3
							c6.2-5.9,12.1-11.8,17.2-17.8c10.4-12,18.6-23.9,24.8-33.9c0.7-1.2,1.3-2.5,2.6-5.1c0.4-0.6,0.9-1.4,1.4-2.5
							c4.2-8.3,8.8-18.4,12.4-27.8c0,0-0.1,0.4-0.4,1s-0.6,1.6-1,2.7c-0.5,1.1-0.9,2.5-1.5,3.9c-0.3,0.7-0.6,1.4-0.8,2.2
							s-0.7,1.4-0.9,2.2c-1.3,2.9-2.5,5.8-3.6,8.1c-1,2.2-1.8,3.6-1.8,3.6c-13.7,30.5-37.1,59.6-67.1,81c-1.9,1.3-3.8,2.6-5.7,4
							c-1.9,1.3-3.9,2.5-5.8,3.7c-3.9,2.5-8,4.7-12,7c-8.2,4.2-16.6,8.3-25.4,11.5c-17.3,6.7-35.5,10.8-53.7,12.9
							c-8,0.8-18.9,1.4-29.6,0.8c-2.7-0.1-5.4-0.4-8-0.6c-2.6-0.2-5.3-0.4-7.7-0.8c-2.5-0.3-4.9-0.7-7.3-0.9c-2.3-0.4-4.4-0.8-6.4-1
							c-11.8-1.9-23.5-4.8-35-8.9c-11.5-4-22.6-9.1-33.2-15.2c-10.7-6-20.7-13-30.1-20.7c-9.3-7.8-17.8-16.3-25.6-25.5
							c-14-16.4-25.5-34.8-33.9-54.6c-4.3-9.8-7.6-20-10.4-30.4l-0.9-3.9l-0.5-2l-0.4-2l-1.6-7.8c-0.8-5.3-1.7-10.6-2.2-15.8
							c-1-10.6-1.4-21.2-0.8-31.9c0.1-1.3,0.1-2.6,0.2-4l0.4-4c0.3-2.6,0.4-5.3,0.8-7.9l1-7.8l1.4-7.8c2.2-10.4,4.9-20.6,8.5-30.5
							c3.7-9.9,7.9-19.5,12.9-28.7c20.1-36.9,51.4-67,88.1-85.7l1.7-0.9l1.8-0.8l3.5-1.6l3.5-1.6c1.1-0.6,2.4-0.9,3.6-1.5
							c2.4-0.9,4.7-2,7.2-2.9l7.3-2.5c9.7-3.2,19.6-5.8,29.7-7.5c10.1-1.7,20.2-2.7,30.3-3c10.2-0.2,20.3,0.3,30.3,1.5
							c1.9,0.2,3.8,0.5,5.6,0.7c1.9,0.2,3.7,0.4,5.6,0.8c-0.8-0.2-1.6-0.4-2.4-0.6c-0.8-0.2-1.6-0.3-2.4-0.5l2.6,0.4l2.5,0.6
							c1.7,0.4,3.5,0.8,5.2,1c10.2,1.9,20.2,4.5,29.8,7.9c9.6,3.5,18.9,7.6,27.5,12.6c1.8,1,1.8,1.2,0.8,0.7c-0.9-0.5-3-1.5-5.5-2.6
							c-1.2-0.6-2.5-1.2-3.9-1.9c-1.4-0.6-2.7-1.2-4.1-1.8c-2.6-1.1-5.1-2.2-6.6-2.5c0.6,0.2,1,0.4,1.6,0.7c0.5,0.2,1,0.5,1.5,0.7
							c0.9,0.5,1.9,0.8,2.6,1.2c1.5,0.8,2.5,1.2,2.5,1.2s-0.9-0.1-1.8-0.2c1.6,0.7,2.9,1.2,4,1.8c1,0.7,2.1,1.2,3.1,1.9
							c-10-4.8-20.4-9-31-12.2c-10.7-3.1-21.7-5.4-32.7-6.8c-5.6-0.8-11.1-1.1-16.7-1.4l-8.4-0.2l-8.4,0.2
							c-11.2,0.5-22.3,1.9-33.4,4.1c2.5-0.3,7.2-0.8,11.9-1.5c2.4-0.3,4.7-0.6,7-0.8c1.1-0.1,2.2-0.3,3.1-0.4
							c0.9-0.1,1.9-0.1,2.6-0.2c14.7-1.4,29.7-1.1,43.1,0.8c1.1,0.2,2.4,0.3,3.5,0.5l3.5,0.6l3.5,0.6c1.1,0.2,2.4,0.4,3.5,0.7
							c2.4,0.6,4.6,1,7,1.6c1.1,0.3,2.3,0.6,3.5,0.9l3.4,0.9l3.4,0.9c1.1,0.4,2.3,0.8,3.4,1.1c2.3,0.8,4.5,1.5,6.8,2.4
							c4.4,1.8,8.9,3.4,13.1,5.5c4.3,1.9,8.5,4.1,12.6,6.3c2.1,1.1,4.1,2.4,6.1,3.5l3,1.8l2.9,1.9c2,1.3,3.9,2.5,5.8,3.8
							c1.9,1.3,3.8,2.7,5.6,4.1c0.9,0.7,1.9,1.3,2.7,2.1c0.8,0.8,1.8,1.4,2.6,2.2c1.8,1.4,3.6,2.8,5.3,4.2c2.5,2.3,4.9,4.5,7.3,6.8
							c2.3,2.4,4.5,4.7,6.8,7c1.4,1.6,1.6,2,1,1.6c-0.3-0.2-0.8-0.6-1.4-1.1c-0.7-0.6-1.4-1.2-2.4-2s-2-1.7-3-2.7
							c-1.1-0.9-2.3-2.1-3.6-3.1c-1.2-1-2.5-2.2-3.9-3.3C374.4,184.4,373.1,183.2,371.8,182.2z M63.4,438.9
							c-5.8-11.5-10.5-23.1-14.1-35.5c-0.7-2.2-1.3-4.3-2-6.5c-0.6-2.2-1.1-4.4-1.7-6.6c-0.3-1.4-0.8-2.7-1-4.1
							c-0.3-1.4-0.7-2.9-0.9-4.3c-0.3-1.5-0.7-2.9-1-4.4c-0.3-1.5-0.6-3-0.8-4.6c-3.7-24-3.1-48.6,1.7-72.3
							c-2.7,11.8-4.4,24.1-4.8,37.3c-0.4,13.2,0.6,27.3,3.5,42.4c-2-9.8-3.3-19.4-3.8-29.1c-0.1-1.2-0.2-2.4-0.2-3.6s0-2.4-0.1-3.6
							c0-2.4-0.1-4.8-0.1-7.2c0.2-4.7,0.3-9.4,0.8-14.1c1.5-18.7,5.8-36.5,12.1-53.4c3.3-8.4,6.8-16.6,11-24.3c2-4,4.3-7.7,6.6-11.5
							l0.8-1.4l0.9-1.4l1.9-2.7l1.9-2.7c0.6-0.9,1.2-1.9,1.9-2.7c2.6-3.6,5.2-7.2,8.1-10.6c1.4-1.7,2.8-3.5,4.2-5.1
							c1.5-1.6,3-3.3,4.4-4.9l2.3-2.5l2.4-2.4c1.6-1.6,3.1-3.1,4.7-4.7c1.6-1.5,3.3-3,5-4.5s3.3-3,5.1-4.4c2.1-1.7,4.1-3.5,6.2-5.3
							c2.2-1.6,4.3-3.3,6.5-4.9l1.6-1.2l1.7-1.1l3.4-2.4l3.4-2.4l3.5-2.2c4.6-2.9,9.5-5.6,14.4-8.2c2.5-1.2,5-2.5,7.5-3.7
							c1.2-0.7,2.5-1.1,3.9-1.7c1.3-0.6,2.5-1.1,3.9-1.6c14.5-6.1,29.5-10.5,44.5-13.2c-11.9,1.9-23.7,4.7-35.1,8.7
							c-11.4,3.9-22.5,8.8-33,14.6c-10.6,5.8-20.6,12.6-30,20.3L111,182l-1.8,1.4c-0.6,0.5-1.1,1-1.7,1.5c-2.3,2.1-4.5,4.1-6.7,6.1
							l-6.4,6.5c-1.1,1-2.1,2.3-3.1,3.4l-3,3.4c-7.9,9.1-15.2,19-21.4,29.4c-6.3,10.4-11.7,21.4-16,32.8
							c-8.7,22.8-13.4,47.2-13.8,71.9c-0.4,24.6,3.8,49.4,12.1,72.9c4.1,11.7,9.3,23.1,15.6,34c6.2,10.8,13.5,21.1,21.6,30.7
							c8.1,9.6,17.1,18.6,26.7,26.7c9.7,8.1,20.3,15.3,31.3,21.6c22.2,12.5,46.8,21,72.2,24.9C151.1,538.5,93.8,497.2,63.4,438.9z
							 M76.7,458.6c7.5,10.7,16,20.6,25.2,29.5c9.2,9,19.2,17.1,29.9,24.1c14.4,9.6,30.4,17.6,46.9,23.5
							c16.6,5.7,33.8,9.3,50.2,10.7c16.6,1.3,32.4,0.7,46.8-1.5c14.3-2.2,27-5.8,37.4-9.6c-14.3,4.9-29.4,8.3-44.8,10
							c-15.4,1.7-31.1,1.6-46.8-0.3c-4-0.4-7.8-1.1-11.8-1.7c-2-0.3-3.9-0.8-5.8-1.1s-3.9-0.8-5.8-1.2c-2-0.5-3.9-1-5.8-1.5
							l-2.9-0.8l-1.4-0.4l-1.4-0.5c-1.9-0.6-3.8-1.2-5.8-1.8c-0.9-0.3-1.9-0.6-2.8-0.9l-2.8-1c-15.1-5.5-29.7-12.7-43.4-21.8
							c3.3,2.1,6.2,4,8.8,5.6c2.6,1.5,5,2.8,7,4c1,0.6,1.9,1,2.7,1.5c0.8,0.4,1.6,0.8,2.3,1.1c1.4,0.7,2.5,1.2,3.1,1.5
							c2.9,1.4,0.8,0.4-5.5-2.7c-6-3.4-16.2-9-28.2-18c-1.5-1.1-3-2.4-4.5-3.6c-0.8-0.6-1.6-1.2-2.4-1.9c-0.8-0.7-1.5-1.3-2.4-2
							c-1.6-1.3-3.2-2.7-4.8-4.1s-3.2-3-4.9-4.6c-0.8-0.8-1.7-1.6-2.5-2.4c-0.4-0.4-0.8-0.8-1.2-1.2c-0.4-0.5-0.8-0.8-1.2-1.3
							c-1.6-1.7-3.3-3.5-5-5.3c-0.4-0.5-0.8-0.8-1.2-1.3s-0.8-0.9-1.2-1.4c-0.8-0.9-1.6-1.9-2.5-2.8c-1.6-1.9-3.4-3.9-4.9-5.9
							c-0.7-0.8-1.5-1.9-2.7-3.4c-0.6-0.8-1.2-1.6-1.9-2.5C78.1,460.7,77.5,459.7,76.7,458.6z"/>
						<path fill="#D2D2D2" d="M173.3,142.9c27-9.3,56.1-13.1,84.1-10.8c-2.6-0.3-5.3-0.6-7.8-0.8l-2-0.2l-2-0.1
							c-1.3-0.1-2.6-0.1-4-0.2c-1.3-0.1-2.6-0.1-4.1-0.2c-1.4,0-2.7,0-4.1,0c-2.8,0-5.8,0-9.1,0.3c-2.2,0.2-4.3,0.4-6.5,0.5
							c-2.2,0.3-4.3,0.6-6.5,0.8c-1.1,0.2-2.2,0.3-3.3,0.5c-1.1,0.2-2.2,0.4-3.3,0.6c-2.2,0.4-4.4,0.8-6.7,1.2
							c-2.2,0.6-4.4,1-6.7,1.6c-1.1,0.3-2.3,0.6-3.3,0.8c-1.1,0.3-2.2,0.7-3.3,0.9c-2.2,0.7-4.4,1.3-6.7,2c-2.2,0.8-4.3,1.6-6.6,2.4
							c-1.1,0.4-2.2,0.8-3.3,1.2l-3.2,1.3c-2.2,0.9-4.3,1.8-6.5,2.7c-4.2,2-8.5,4-12.6,6.2c-8.3,4.3-16.1,9.3-23.7,14.5
							c-10.7,7.5-20.8,16.2-30.1,25.8s-17.6,20.2-25,31.5C52.4,248.2,42,274.1,37,301.4c-5,27.2-4.6,55.8,1.4,83.4
							s17.6,54.3,34.3,77.7c0.4,0.6,0.8,1.2,1.3,2c0.6,0.8,1.1,1.5,1.8,2.4c1.3,1.7,2.7,3.6,4.2,5.6c1.6,2,3.3,3.9,5,5.8
							c0.8,0.9,1.7,2,2.5,2.9c0.8,0.8,1.7,1.8,2.5,2.6c-12.3-13.3-22.5-28.2-30.9-43.9c-8.5-15.6-14.6-32.4-18.8-49.5
							c-0.6-2.1-1-4.2-1.4-6.4c-0.5-2.2-0.9-4.2-1.3-6.4l-1-6.5l-0.5-3.2l-0.4-3.3l-0.7-6.5c-0.2-2.2-0.3-4.3-0.4-6.5
							c-0.4-4.3-0.3-8.7-0.4-13c0-1,0-2.2,0.1-3.2l0.1-3.2l0.1-3.2c0-1,0.1-2.2,0.2-3.2c0.4-4.3,0.7-8.6,1.3-12.9
							c0.3-2.2,0.6-4.2,0.8-6.4l1.1-6.3l0.6-3.2l0.8-3.1l1.5-6.3c4.3-16.7,10.7-32.6,18.8-47.7c8.1-15,18.2-28.8,29.6-41.4
							c11.4-12.5,24.4-23.6,38.5-32.9c1.8-1.1,3.5-2.4,5.3-3.5l5.5-3.2l2.7-1.6l2.8-1.5l5.6-2.9c1.9-0.9,3.9-1.8,5.8-2.7l2.8-1.3
							l1.4-0.7l1.5-0.6C165.4,145.9,169.3,144.2,173.3,142.9z"/>
						<path fill="#D2D2D2" d="M256.3,553.8c0.7,0,1.3,0,2-0.1l2-0.2l4-0.3l4-0.3c1.3-0.2,2.6-0.4,4-0.5c2.6-0.4,5.3-0.7,7.8-1
							c2.5-0.5,5.2-0.9,7.7-1.4c1.3-0.2,2.5-0.5,3.9-0.8c1.2-0.3,2.5-0.6,3.8-0.8s2.5-0.6,3.8-0.8c1.2-0.4,2.5-0.7,3.8-1
							c2.5-0.7,5-1.3,7.4-2.1c2.5-0.8,4.8-1.6,7.3-2.4c-2.2,0.7-4.5,1.3-6.9,2c-1.2,0.4-2.5,0.7-3.7,0.9c-1.2,0.3-2.5,0.7-3.8,0.9
							c-1.2,0.3-2.5,0.7-3.9,0.9c-1.3,0.3-2.6,0.6-4,0.8c-1.3,0.3-2.6,0.6-4.1,0.8c-1.3,0.3-2.7,0.6-4.1,0.8
							c-10.8,2-22.2,2.9-32.1,3.3c-28.3,1-56.8-3.5-83-13.3C198.2,549.6,226.8,554.9,256.3,553.8z"/>
						<path fill="#D2D2D2" d="M90.5,484l2.9,3.2c1,1,2,2.2,3,3.1c2.1,2,4.1,4.1,6.2,6.1c19.6,18.3,43.4,33.3,69.6,43
							c-27.4-10.8-52.1-27.2-73-48c-0.2,0.2-1.2-0.5-2.8-1.7C94.8,488.3,92.8,486.3,90.5,484z"/>
					</g>
				</g>
			</g>
		</g>
	</g>
</g>
<path fill="#B2DFED" d="M200.5,339.5c9.1-0.6,17.8-0.6,26.5-1.8c9.4-1.3,16.1-7.9,21.3-15.3c6.1-8.7,11.3-18,16.9-27.2
	c0.8-1.2,1.1-2.7,2-3.7c1-1.1,2.5-1.9,3.8-2.7c0.7,1.5,2.2,3.1,2,4.5c-1.5,11.8-3.2,23.7-5,35.4c-1.2,8.1-2.5,16.3-4,25.5
	c2.2-3,3.6-5.4,5.3-7.3c6.7-7.4,15.3-5.9,17.8,3.7c1.8,6.7,1.9,14,2.7,20.9c0.2,1.4,0,2.8,0.8,4.4c0.5-0.9,0.9-2,1.5-2.8
	c3.1-5,5.6-10.7,9.5-14.9c6.3-6.8,15.6-5.6,20.3,2.4c2.5,4.2,3.9,9.2,5.9,13.8c3,6.7,5.6,13.8,9.7,19.7c6.7,9.9,17,12.3,27.2,6.2
	c7.6-4.5,14.6-10.4,20.9-16.5c12.1-11.6,22.8-24.7,35.5-35.6c20.8-17.9,45.3-27.2,73.3-25.1c18.9,1.4,36.9,7.1,54.5,13.8
	c18.5,7.1,36.5,15,56,19.1c33.8,7.2,66.5,3,98.4-8.9c18.9-7,36.8-16.1,53.9-26.6c1.2-0.8,2.4-1.8,3.7-2.1c1.1-0.2,3,0.2,3.6,1
	c0.5,0.8-0.2,2.5-0.7,3.7c-0.2,0.5-0.9,0.8-1.5,1c-29.3,18-60.1,32.6-94.4,38.6c-31.9,5.6-62.8,2.4-93-9.4
	c-18.2-7.2-36.5-14.2-55.2-20c-41.8-12.7-77.3-0.8-107.4,29.6c-10.3,10.4-19.7,21.6-30.1,31.8c-4.7,4.6-10.7,8.3-16.7,11.2
	c-12.3,5.9-24.3,3.4-32.2-7.6c-4.9-6.9-7.8-15.2-11.5-22.9c-1.8-3.8-2.9-8-5.2-11.5c-3.5-5.6-8.6-6-12.2-0.6
	c-4.3,6.6-7.9,13.9-10.7,21.2c-2.5,6.4-3.1,13.4-5,20.1c-0.5,1.8-2.3,3.2-3.4,4.7c-0.8-1.8-2.4-3.5-2.4-5.3c-0.1-14,0.1-27.9,0-41.9
	c0-3.4-0.8-6.9-1.9-10.1c-1.4-4.5-4-5.1-7.1-1.6c-2.1,2.5-4.2,5.3-5.2,8.3c-4.6,15.1-8.8,30.4-13.1,45.5c-0.3,0.9-0.1,2.1-0.7,2.7
	c-0.9,1.3-2.4,2.4-3.5,3.5c-0.8-1.4-2.3-3-2.2-4.3c0.8-7,1.9-14,3-20.9c3.9-24,7.7-48,11.6-72c0.2-0.9,0.1-1.9,0.3-4.1
	c-7.6,11.9-14.5,22.8-25.8,29.9c-11.9,7.4-25.1,5.7-37.6,5.7c-1.2,9.6-2,18.8-3.7,27.8c-2.2,11-6.7,21.2-14.1,29.9
	c-1,1.2-2.2,2.4-3.3,3.3c-8.8,7.4-18.4,4.8-22.2-6.2c-3.2-9.3-1.7-18.7,0.7-27.8c4.5-17.5,15-29,33.5-32c0.8-0.1,1.5-0.5,2.7-0.8
	c-1.4-17.2-2.7-34.3-4.2-52.4c-0.8,1.7-1.6,2.9-2.2,4.2c-10.4,23.4-21.2,46.6-36.3,67.4c-12.3,17-26.8,31.6-45.1,42.1
	c-28.8,16.5-52.5,11.7-72.6-14.7c-12-15.8-19.1-33.8-23.2-53c-0.3-1.4,1.2-3.3,1.9-4.9c1.2,1.2,3.2,2.4,3.5,3.8
	c4.3,19,11.7,36.8,23.7,52.3c7.9,10.4,17.5,18.4,31.2,20.1c8.2,1,15.9-0.7,23.4-3.8c19.6-8.4,34.6-22.5,47.7-38.9
	c17.1-21.4,28.7-46,39.7-70.8c3.4-7.7,6.6-15.6,10.2-23.3c0.6-1.3,2.5-2,3.9-2.9c0.7,1.6,2.1,3.3,1.8,4.8
	c-3.2,17.4-0.7,34.8,0.8,52.1C199.5,326.7,199.9,332.6,200.5,339.5z M194.8,345.1c-7.7,0.7-14.1,2.7-19,7.7
	c-10.8,10.9-14.9,24.3-13.5,39.5c0.5,4.6,0.8,10.2,6.5,11.4c5.3,1.1,8.8-2.9,11.5-6.7C191.5,381.7,194.7,364.1,194.8,345.1z"/>
<path fill="none" stroke="#B2DFED" stroke-width="10" stroke-miterlimit="10" d="M200.5,339.5c9.1-0.6,17.8-0.6,26.5-1.8
	c9.4-1.3,16.1-7.9,21.3-15.3c6.1-8.7,11.3-18,16.9-27.2c0.8-1.2,1.1-2.7,2-3.7c1-1.1,2.5-1.9,3.8-2.7c0.7,1.5,2.2,3.1,2,4.5
	c-1.5,11.8-3.2,23.7-5,35.4c-1.2,8.1-2.5,16.3-4,25.5c2.2-3,3.6-5.4,5.3-7.3c6.7-7.4,15.3-5.9,17.8,3.7c1.8,6.7,1.9,14,2.7,20.9
	c0.2,1.4,0,2.8,0.8,4.4c0.5-0.9,0.9-2,1.5-2.8c3.1-5,5.6-10.7,9.5-14.9c6.3-6.8,15.6-5.6,20.3,2.4c2.5,4.2,3.9,9.2,5.9,13.8
	c3,6.7,5.6,13.8,9.7,19.7c6.7,9.9,17,12.3,27.2,6.2c7.6-4.5,14.6-10.4,20.9-16.5c12.1-11.6,22.8-24.7,35.5-35.6
	c20.8-17.9,45.3-27.2,73.3-25.1c18.9,1.4,36.9,7.1,54.5,13.8c18.5,7.1,36.5,15,56,19.1c33.8,7.2,66.5,3,98.4-8.9
	c18.9-7,36.8-16.1,53.9-26.6c1.2-0.8,2.4-1.8,3.7-2.1c1.1-0.2,3,0.2,3.6,1c0.5,0.8-0.2,2.5-0.7,3.7c-0.2,0.5-0.9,0.8-1.5,1
	c-29.3,18-60.1,32.6-94.4,38.6c-31.9,5.6-62.8,2.4-93-9.4c-18.2-7.2-36.5-14.2-55.2-20c-41.8-12.7-77.3-0.8-107.4,29.6
	c-10.3,10.4-19.7,21.6-30.1,31.8c-4.7,4.6-10.7,8.3-16.7,11.2c-12.3,5.9-24.3,3.4-32.2-7.6c-4.9-6.9-7.8-15.2-11.5-22.9
	c-1.8-3.8-2.9-8-5.2-11.5c-3.5-5.6-8.6-6-12.2-0.6c-4.3,6.6-7.9,13.9-10.7,21.2c-2.5,6.4-3.1,13.4-5,20.1c-0.5,1.8-2.3,3.2-3.4,4.7
	c-0.8-1.8-2.4-3.5-2.4-5.3c-0.1-14,0.1-27.9,0-41.9c0-3.4-0.8-6.9-1.9-10.1c-1.4-4.5-4-5.1-7.1-1.6c-2.1,2.5-4.2,5.3-5.2,8.3
	c-4.6,15.1-8.8,30.4-13.1,45.5c-0.3,0.9-0.1,2.1-0.7,2.7c-0.9,1.3-2.4,2.4-3.5,3.5c-0.8-1.4-2.3-3-2.2-4.3c0.8-7,1.9-14,3-20.9
	c3.9-24,7.7-48,11.6-72c0.2-0.9,0.1-1.9,0.3-4.1c-7.6,11.9-14.5,22.8-25.8,29.9c-11.9,7.4-25.1,5.7-37.6,5.7
	c-1.2,9.6-2,18.8-3.7,27.8c-2.2,11-6.7,21.2-14.1,29.9c-1,1.2-2.2,2.4-3.3,3.3c-8.8,7.4-18.4,4.8-22.2-6.2
	c-3.2-9.3-1.7-18.7,0.7-27.8c4.5-17.5,15-29,33.5-32c0.8-0.1,1.5-0.5,2.7-0.8c-1.4-17.2-2.7-34.3-4.2-52.4c-0.8,1.7-1.6,2.9-2.2,4.2
	c-10.4,23.4-21.2,46.6-36.3,67.4c-12.3,17-26.8,31.6-45.1,42.1c-28.8,16.5-52.5,11.7-72.6-14.7c-12-15.8-19.1-33.8-23.2-53
	c-0.3-1.4,1.2-3.3,1.9-4.9c1.2,1.2,3.2,2.4,3.5,3.8c4.3,19,11.7,36.8,23.7,52.3c7.9,10.4,17.5,18.4,31.2,20.1
	c8.2,1,15.9-0.7,23.4-3.8c19.6-8.4,34.6-22.5,47.7-38.9c17.1-21.4,28.7-46,39.7-70.8c3.4-7.7,6.6-15.6,10.2-23.3
	c0.6-1.3,2.5-2,3.9-2.9c0.7,1.6,2.1,3.3,1.8,4.8c-3.2,17.4-0.7,34.8,0.8,52.1C199.5,326.7,199.9,332.6,200.5,339.5z M194.8,345.1
	c-7.7,0.7-14.1,2.7-19,7.7c-10.8,10.9-14.9,24.3-13.5,39.5c0.5,4.6,0.8,10.2,6.5,11.4c5.3,1.1,8.8-2.9,11.5-6.7
	C191.5,381.7,194.7,364.1,194.8,345.1z"/>
<circle fill="none" stroke="#000000" stroke-width="20" stroke-miterlimit="10" cx="247.7" cy="337.3" r="235.5"/>
</svg>
