<?xml version="1.0" encoding="utf-8"?>
<!-- Generator: Adobe Illustrator 18.1.0, SVG Export Plug-In . SVG Version: 6.00 Build 0)  -->
<!DOCTYPE svg PUBLIC "-//W3C//DTD SVG 1.1//EN" "http://www.w3.org/Graphics/SVG/1.1/DTD/svg11.dtd">
<svg version="1.1" id="Layer_1" xmlns="http://www.w3.org/2000/svg" xmlns:xlink="http://www.w3.org/1999/xlink" x="0px" y="0px"
	 viewBox="-10.2 28.8 840.1 549.1" enable-background="new -10.2 28.8 840.1 549.1" xml:space="preserve">
<circle fill="#FFFFFF" cx="263.4" cy="306" r="249.8"/>
<g>
	<g>
		<g>
			<g>
				<g opacity="0.8">
					<g>
						<path fill="#D2D2D2" d="M395,141.5c-1.9-1.5-3.8-3-5.6-4.5l-1.4-1.1l-1.4-1c-1-0.7-1.9-1.4-2.9-2c-1-0.7-1.9-1.4-2.9-2l-1.4-1
							l-1.5-0.9c-2-1.2-3.9-2.5-5.9-3.7l-1.5-0.9l-1.5-0.8c-1-0.6-2-1.1-3-1.7c-1-0.6-2-1.1-3-1.7l-1.5-0.8l-1.5-0.8
							c-4.1-2-8.1-4.1-12.2-5.8c-8.2-3.7-16.6-6.6-25.1-9.1l-6.4-1.7c-1.1-0.3-2.1-0.6-3.2-0.8l-3.3-0.7c-2.2-0.5-4.3-0.9-6.5-1.4
							c-2.2-0.4-4.4-0.7-6.6-1.1c-27.3-4.2-54.1-3.5-80.2,1.9c-26.1,5.5-51.9,15.9-76,32.6c-12,8.3-22.6,17.5-32.2,27.6
							c-9.6,10.1-18.2,21-25.8,33.1c-15.6,23.9-27,52.6-31.6,83.4c-2.3,15.4-2.8,31.3-1.6,47.3l0.2,3l0.3,3c0.2,2,0.5,4,0.7,6
							c0.2,2,0.6,4,0.9,6c0.3,2,0.6,4,1,6c1.7,7.9,3.5,15.9,6.1,23.7c0.5,1.7,1.2,4.2,2.2,6.9c1,2.7,2.1,5.7,3.2,8.4
							c2.4,5.3,4.5,9.5,4.7,8.3c12.7,29,31.9,54.6,55.4,75c11.7,10.2,24.6,19,38.2,26.3c13.6,7.3,28.1,12.9,42.9,16.9
							c12.4,3.4,25.4,6.1,38.6,7.6c13.1,1.5,26.5,1.7,39.4,0.4c10.5-1.1,20.9-2.8,31.1-5.2c10.2-2.5,20.2-5.5,29.9-9.2
							c2.4-0.9,4.8-2,7.2-3c1.2-0.5,2.4-1,3.6-1.5l3.5-1.7l3.5-1.7c1.2-0.6,2.4-1.1,3.5-1.7l6.8-3.7c1.2-0.6,2.3-1.3,3.4-2l3.3-2
							l3.3-2c1.1-0.7,2.1-1.5,3.2-2.2l6.4-4.4l6.1-4.8c2.3-1.8,5.5-5,8.8-8c1.7-1.5,3.1-3.1,4.5-4.5c1.4-1.4,2.6-2.5,3.4-3.4
							c20.8-19.5,36.4-42.8,46.7-67.7c10.4-24.9,15.6-51.3,16.2-78c0-2.6,0.1-5.2,0.1-7.6c0-2.5-0.2-4.9-0.2-7.3
							c0-1.2-0.1-2.4-0.1-3.5c-0.1-1.2-0.2-2.3-0.3-3.5c-0.2-2.3-0.4-4.6-0.6-6.9c-0.3-2.3-0.6-4.5-0.9-6.8
							c-0.1-1.1-0.3-2.3-0.4-3.4c-0.2-1.1-0.4-2.3-0.6-3.4c-0.4-2.3-0.8-4.6-1.2-7c-0.5-2.3-1-4.7-1.6-7.2c-0.5-0.8-0.9-2.4-1.6-4.4
							c-0.6-2-1.4-4.5-2.2-7.3c-0.5-1.8-1.5-4.6-2.5-8.2c-0.3-0.9-0.6-1.8-0.9-2.8c-0.4-1-0.7-2-1.1-3c-0.8-2.1-1.6-4.4-2.5-6.8
							c-3.7-9.4-8.9-20.5-15-30.9c-0.8-1.3-1.5-2.6-2.3-3.8c-0.8-1.3-1.5-2.6-2.3-3.8c-1.6-2.4-3.2-4.8-4.8-7.2
							c-1.6-2.3-3.3-4.4-4.8-6.5c-0.8-1-1.5-2.1-2.3-3c-0.8-1-1.5-1.9-2.3-2.8c-1.5-1.8-2.8-3.5-4.1-5c-1.3-1.5-2.5-2.8-3.5-4
							c-2.1-2.3-3.5-4-4.1-4.8c-0.3-0.4,1.3,1.2,4.3,4.3c1.5,1.6,3.4,3.4,5.4,5.8c1,1.2,2.1,2.4,3.3,3.7c0.6,0.7,1.2,1.3,1.8,2
							c0.6,0.7,1.2,1.5,1.8,2.2c9.7,12,21.5,29.6,29.7,49l1.6,3.6c0.5,1.2,0.9,2.4,1.4,3.7c0.9,2.5,1.9,4.9,2.8,7.3
							c0.8,2.5,1.6,4.9,2.4,7.3c0.2,0.6,0.4,1.2,0.6,1.8c0.2,0.6,0.3,1.2,0.5,1.8c0.3,1.2,0.7,2.4,1,3.6c1.4,4.7,2.3,9.4,3.3,13.8
							c0.5,2.2,0.8,4.4,1.2,6.4c0.3,2.1,0.8,4.1,1,6c0.2,1.9,0.5,3.8,0.7,5.6c0.2,1.8,0.5,3.4,0.6,5c0.3,3.1,0.5,5.8,0.7,8
							c0.3,4.4,0.3,6.8,0.4,6.4c0-0.5,0-2.6-0.1-6c-0.1-1.7-0.2-3.7-0.4-5.9c-0.1-1.1-0.2-2.3-0.2-3.5c-0.1-1.2-0.3-2.5-0.4-3.9
							c-1.1-10.8-3.7-24.8-7.9-38.6c-4.1-13.8-9.9-27.2-15.3-37.4c-1.3-2.6-2.7-4.9-3.9-7.1c-0.6-1.1-1.2-2.1-1.7-3.1
							c-0.6-0.9-1.1-1.8-1.7-2.7c-2.1-3.3-3.5-5.6-4.1-6.7c7.1,10.4,13,21,17.9,31.5c0.6,1.3,1.2,2.6,1.8,3.9
							c0.6,1.3,1.2,2.6,1.7,3.9c1,2.6,2.1,5.2,3.1,7.8c0.9,2.6,1.8,5.2,2.7,7.7c0.9,2.5,1.6,5.1,2.3,7.6c1.6,5,2.6,10,3.8,14.8
							c0.5,2.4,0.9,4.8,1.4,7.2c0.2,1.2,0.4,2.4,0.7,3.5c0.2,1.2,0.3,2.3,0.5,3.5c0.3,2.3,0.6,4.6,0.9,6.9c0.2,2.3,0.4,4.5,0.6,6.7
							c0.5,4.4,0.5,8.7,0.7,12.9c0.1,2.1,0,4.2,0,6.2c0,2,0,4,0,6c-0.2,3.9-0.4,7.8-0.7,11.4c-0.4,3.7-0.7,7.2-1.1,10.7
							c-0.5,3.4-1,6.7-1.5,9.9c-2.2,12.7-5.4,23.4-8.3,32.2c-1.6,4.4-2.9,8.4-4.4,12c-1.5,3.6-2.7,6.8-4.1,9.5
							c-1.3,2.8-2.4,5.2-3.4,7.3c-1.1,2-2,3.8-2.7,5.2c-1.5,2.8-2.3,4.4-2.6,4.9c-0.3,0.5,0.1,0,1-1.5c0.8-1.5,2.1-3.9,3.9-7.1
							c0.9-1.6,1.8-3.4,2.8-5.4c1-2,2-4.2,3.2-6.6c4.2-9.6,9-22.1,12.5-36.5c3.6-14.4,6.1-30.7,6.4-47.3c0.4-16.5-1.2-33.3-4.3-48.6
							c-1.7-9.6-4.6-21-9.5-34.2c-4.9-13.1-11.9-27.9-22-43.7c0.8,1.2,1.6,2.4,2.5,3.7c0.9,1.3,1.8,2.6,2.6,4.1
							c0.9,1.5,1.8,3,2.7,4.5c0.9,1.6,1.9,3.1,2.8,4.8c3.7,6.6,7.4,13.9,10.4,21.1c6.2,14.3,10,28,11.1,33.3c2.8,12.2,4,21,4.8,28.2
							c0.8,7.2,1,12.7,1.3,18.5c0,2.9,0,5.8,0,9.1c-0.1,3.2-0.4,6.8-0.6,10.8c-0.8,8.1-1.9,18.4-5.3,32.3c-2.9,11.4-7,24.7-13,38.4
							c-5.9,13.6-13.7,27.6-22.7,40.3c-9,12.8-19.3,24.4-29.6,34c-10.3,9.7-20.5,17.3-28.9,23c0.5-0.4,1.1-0.8,1.7-1.2
							c0.6-0.4,1.2-0.9,1.8-1.4c1.2-0.9,2.5-1.9,3.9-3c0.7-0.5,1.4-1.1,2.1-1.6c0.4-0.3,0.7-0.6,1.1-0.8c0.4-0.3,0.7-0.6,1.1-0.9
							c1.4-1.2,2.9-2.5,4.5-3.8c3.1-2.5,6.2-5.6,9.5-8.6c0.8-0.8,1.7-1.5,2.4-2.3c0.8-0.8,1.6-1.6,2.4-2.4c1.6-1.6,3.2-3.3,4.9-5
							c1.6-1.7,3.1-3.5,4.7-5.3c1.6-1.8,3.2-3.5,4.6-5.4c3-3.7,6-7.3,8.7-11.1c1.4-1.9,2.8-3.7,4-5.5c1.3-1.9,2.5-3.7,3.7-5.5
							c2.5-3.5,4.6-7.1,6.6-10.3c-2.3,3.5-4.3,6.9-6.6,9.9c-2.2,3-4.1,6-6.3,8.6c-1,1.3-2,2.6-3,3.9c-1,1.3-1.9,2.5-2.9,3.7
							c-2,2.4-3.9,4.6-5.7,6.8c-1.8,2.1-3.7,4.1-5.5,6.1c-0.9,1-1.8,1.9-2.6,2.9c-0.9,0.9-1.8,1.8-2.7,2.7c-1.8,1.8-3.5,3.6-5.2,5.3
							c-1.8,1.7-3.5,3.3-5.3,5c-3.5,3.4-7.3,6.4-11.2,9.7c-2,1.6-4.1,3.2-6.3,4.8c-1.1,0.8-2.2,1.6-3.3,2.5
							c-1.2,0.8-2.4,1.6-3.6,2.4c-9.8,6.5-21.8,13.5-38.2,19.8c-6.1,2.4-13.2,5-21.1,7.4c-1.9,0.5-3.8,0.9-5.7,1.4
							c-1.9,0.5-3.8,0.8-5.8,1.2c-2,0.4-4,0.8-6,1.2c-2.1,0.3-4.3,0.6-6.6,1c-28.6,4.6-56.1,3.8-82.7-1.5
							c-26.5-5.4-52.1-15.4-75.9-31.2c2.1,1.3,3.7,2.5,5.3,3.7c0.8,0.6,1.6,1.2,2.5,1.9c0.9,0.6,1.9,1.2,2.9,1.8
							c1.3,0.8,2.7,1.6,4,2.3c1.3,0.8,2.6,1.6,4,2.2c2.7,1.4,5.4,2.8,8,4.1c5.4,2.5,10.8,5,16.3,6.9c11,4.1,22,7.4,33.4,9.5
							c11.4,2.2,23,3.6,35,4.2c12,0.4,24.5,0,37.4-1.4c5-0.4,10.9-1.7,16.8-2.9c2.9-0.8,5.9-1.5,8.7-2.2c1.4-0.3,2.8-0.8,4.2-1.2
							c1.4-0.4,2.7-0.8,3.9-1.1c1.3-0.4,2.6-0.7,3.9-1.1c1.3-0.4,2.5-0.8,3.8-1.2c2.5-0.8,5-1.5,7.4-2.4c4.8-1.8,9.6-3.3,14.1-5.3
							c9.3-3.7,18-8.1,26.8-13c-8.5,5.2-17.7,10.4-27.6,14.6c-9.9,4.3-20.3,8.1-31,10.8c-21.5,5.8-44.3,8.1-65.9,7.4
							c-2.2,0-4.6-0.1-7-0.2c-2.4-0.1-4.8-0.1-7.2-0.3c-2.4-0.2-4.7-0.3-6.8-0.5c-1.1-0.1-2.1-0.1-3.1-0.2c-1-0.1-1.9-0.2-2.8-0.3
							c2.5,0.5,5,0.7,7.5,1l3.7,0.5c1.2,0.2,2.5,0.3,3.8,0.4l7.5,0.6l1.9,0.1l1.9,0l3.8,0.1c5,0.2,10.1,0,15.1-0.1
							c2.5-0.1,5-0.3,7.6-0.5l3.8-0.3c1.3-0.1,2.5-0.3,3.8-0.4c17.6-2.1,36.3-6.4,54.3-13.5c9.1-3.4,17.9-7.8,26.4-12.3
							c2.1-1.2,4.2-2.4,6.3-3.7c1-0.6,2.1-1.2,3.1-1.8l3-2c2-1.3,4-2.6,6.1-3.9c1.9-1.4,3.9-2.8,5.8-4.2c1-0.7,1.9-1.4,2.9-2.1
							c1-0.7,1.9-1.5,2.8-2.2c1.8-1.5,3.7-2.9,5.5-4.4c0.9-0.7,1.8-1.5,2.7-2.3c0.9-0.8,1.7-1.5,2.6-2.3c1.7-1.5,3.5-3,5.1-4.6
							c6.6-6.3,12.8-12.5,18.2-18.9c11-12.7,19.7-25.3,26.3-36c0.7-1.3,1.4-2.7,2.8-5.4c0.4-0.6,1-1.5,1.5-2.6
							c4.5-8.8,9.3-19.5,13.2-29.5c0,0-0.1,0.4-0.4,1.1c-0.3,0.7-0.6,1.7-1.1,2.9c-0.5,1.2-1,2.6-1.6,4.1c-0.3,0.7-0.6,1.5-0.9,2.3
							c-0.3,0.8-0.7,1.5-1,2.3c-1.4,3.1-2.7,6.2-3.8,8.6c-1.1,2.3-1.9,3.8-1.9,3.8c-14.5,32.4-39.4,63.2-71.2,85.9
							c-2,1.4-4,2.8-6,4.2c-2,1.4-4.1,2.6-6.2,3.9c-4.1,2.7-8.5,5-12.7,7.4c-8.7,4.5-17.6,8.8-26.9,12.2
							c-18.4,7.1-37.7,11.5-57,13.7c-8.5,0.9-20,1.5-31.4,0.8c-2.9-0.1-5.7-0.4-8.5-0.6c-2.8-0.2-5.6-0.4-8.2-0.8
							c-2.7-0.3-5.2-0.7-7.7-1c-2.4-0.4-4.7-0.8-6.8-1.1c-12.5-2-24.9-5.1-37.1-9.4c-12.2-4.2-24-9.7-35.2-16.1
							c-11.3-6.4-22-13.8-31.9-22c-9.9-8.3-18.9-17.3-27.2-27c-14.8-17.4-27-36.9-36-57.9c-4.6-10.4-8.1-21.2-11-32.2l-1-4.1
							l-0.5-2.1l-0.4-2.1l-1.7-8.3c-0.9-5.6-1.8-11.2-2.3-16.8c-1.1-11.2-1.5-22.5-0.9-33.8c0.1-1.4,0.1-2.8,0.2-4.2l0.4-4.2
							c0.3-2.8,0.4-5.6,0.9-8.4l1.1-8.3l1.5-8.3c2.3-11,5.2-21.8,9-32.3c3.9-10.5,8.4-20.7,13.7-30.4c21.3-39.1,54.5-71.1,93.4-90.9
							l1.8-1l1.9-0.9l3.7-1.7l3.7-1.7c1.2-0.6,2.5-1,3.8-1.6c2.5-1,5-2.1,7.6-3.1l7.7-2.7c10.3-3.4,20.8-6.1,31.5-8
							c10.7-1.8,21.4-2.9,32.1-3.2c10.8-0.2,21.5,0.3,32.1,1.6c2,0.2,4,0.5,5.9,0.7c2,0.2,3.9,0.4,5.9,0.8c-0.8-0.2-1.7-0.4-2.5-0.6
							c-0.8-0.2-1.7-0.3-2.5-0.5l2.8,0.4l2.7,0.6c1.8,0.4,3.7,0.8,5.5,1.1c10.8,2,21.4,4.8,31.6,8.4c10.2,3.7,20,8.1,29.2,13.4
							c1.9,1.1,1.9,1.3,0.9,0.7c-1-0.5-3.2-1.6-5.8-2.8c-1.3-0.6-2.7-1.3-4.1-2c-1.5-0.6-2.9-1.3-4.4-1.9c-2.8-1.2-5.4-2.3-7-2.7
							c0.6,0.2,1.1,0.4,1.7,0.7c0.5,0.2,1.1,0.5,1.6,0.7c1,0.5,2,0.9,2.8,1.3c1.6,0.8,2.7,1.3,2.7,1.3s-1-0.1-1.9-0.2
							c1.7,0.7,3.1,1.3,4.2,1.9c1.1,0.7,2.2,1.3,3.3,2c-10.6-5.1-21.6-9.5-32.9-12.9c-11.3-3.3-23-5.7-34.7-7.2
							c-5.9-0.8-11.8-1.2-17.7-1.5l-8.9-0.2l-8.9,0.2c-11.9,0.5-23.7,2-35.4,4.4c2.7-0.3,7.6-0.8,12.6-1.6c2.5-0.3,5-0.6,7.4-0.8
							c1.2-0.1,2.3-0.3,3.3-0.4c1-0.1,2-0.1,2.8-0.2c15.6-1.5,31.5-1.2,45.7,0.9c1.2,0.2,2.5,0.3,3.7,0.5l3.7,0.6l3.7,0.6
							c1.2,0.2,2.5,0.4,3.7,0.7c2.5,0.6,4.9,1.1,7.4,1.7c1.2,0.3,2.4,0.6,3.7,1l3.6,1l3.6,1c1.2,0.4,2.4,0.8,3.6,1.2
							c2.4,0.8,4.8,1.6,7.2,2.5c4.7,1.9,9.4,3.6,13.9,5.8c4.6,2,9,4.4,13.4,6.7c2.2,1.2,4.3,2.5,6.5,3.7l3.2,1.9l3.1,2
							c2.1,1.4,4.1,2.7,6.2,4c2,1.4,4,2.9,5.9,4.3c1,0.7,2,1.4,2.9,2.2c0.9,0.8,1.9,1.5,2.8,2.3c1.9,1.5,3.8,3,5.6,4.5
							c2.6,2.4,5.2,4.8,7.7,7.2c2.4,2.5,4.8,5,7.2,7.4c1.5,1.7,1.7,2.1,1.1,1.7c-0.3-0.2-0.8-0.6-1.5-1.2c-0.7-0.6-1.5-1.3-2.5-2.1
							c-1-0.8-2.1-1.8-3.2-2.9c-1.2-1-2.4-2.2-3.8-3.3c-1.3-1.1-2.7-2.3-4.1-3.5C397.8,143.8,396.4,142.5,395,141.5z M67.9,413.8
							c-6.2-12.2-11.1-24.5-15-37.7c-0.7-2.3-1.4-4.6-2.1-6.9c-0.6-2.3-1.2-4.7-1.8-7c-0.3-1.5-0.8-2.9-1.1-4.4
							c-0.3-1.5-0.7-3.1-1-4.6c-0.3-1.6-0.7-3.1-1.1-4.7c-0.3-1.6-0.6-3.2-0.9-4.9c-3.9-25.5-3.3-51.5,1.8-76.7
							c-2.9,12.5-4.7,25.6-5.1,39.6c-0.4,14,0.6,29,3.7,45c-2.1-10.4-3.5-20.6-4-30.9c-0.1-1.3-0.2-2.5-0.2-3.8c0-1.3,0-2.5-0.1-3.8
							c0-2.5-0.1-5.1-0.1-7.6c0.2-5,0.3-10,0.8-15c1.6-19.8,6.2-38.7,12.8-56.6c3.5-8.9,7.2-17.6,11.7-25.8c2.1-4.2,4.6-8.2,7-12.2
							l0.9-1.5l1-1.5l2-2.9l2-2.9c0.6-1,1.3-2,2-2.9c2.8-3.8,5.5-7.6,8.6-11.2c1.5-1.8,3-3.7,4.5-5.4c1.6-1.7,3.2-3.5,4.7-5.2
							l2.4-2.6l2.5-2.5c1.7-1.7,3.3-3.3,5-5c1.7-1.6,3.5-3.2,5.3-4.8c1.8-1.6,3.5-3.2,5.4-4.7c2.2-1.8,4.4-3.7,6.6-5.6
							c2.3-1.7,4.6-3.5,6.9-5.2l1.7-1.3l1.8-1.2l3.6-2.5l3.6-2.5l3.7-2.3c4.9-3.1,10.1-5.9,15.3-8.7c2.6-1.3,5.3-2.6,8-3.9
							c1.3-0.7,2.7-1.2,4.1-1.8c1.4-0.6,2.7-1.2,4.1-1.7c15.4-6.5,31.3-11.1,47.2-14c-12.6,2-25.1,5-37.2,9.2
							c-12.1,4.1-23.9,9.3-35,15.5c-11.2,6.2-21.8,13.4-31.8,21.5l-3.7,3.1l-1.9,1.5c-0.6,0.5-1.2,1.1-1.8,1.6
							c-2.4,2.2-4.8,4.3-7.1,6.5l-6.8,6.9c-1.2,1.1-2.2,2.4-3.3,3.6l-3.2,3.6c-8.4,9.7-16.1,20.2-22.7,31.2
							c-6.7,11-12.4,22.7-17,34.8c-9.2,24.2-14.2,50.1-14.6,76.3c-0.4,26.1,4,52.4,12.8,77.3c4.4,12.4,9.9,24.5,16.5,36.1
							c6.6,11.5,14.3,22.4,22.9,32.6c8.6,10.2,18.1,19.7,28.3,28.3c10.3,8.6,21.5,16.2,33.2,22.9c23.5,13.3,49.6,22.3,76.6,26.4
							C160.9,519.4,100.1,475.6,67.9,413.8z M82,434.7c8,11.3,17,21.8,26.7,31.3c9.8,9.5,20.4,18.1,31.7,25.6
							c15.3,10.2,32.2,18.7,49.8,24.9c17.6,6,35.8,9.9,53.3,11.4c17.6,1.4,34.4,0.7,49.6-1.6c15.2-2.3,28.6-6.1,39.7-10.2
							c-15.2,5.2-31.2,8.8-47.5,10.6c-16.3,1.8-33,1.7-49.6-0.3c-4.2-0.4-8.3-1.2-12.5-1.8c-2.1-0.3-4.1-0.8-6.2-1.2
							c-2.1-0.4-4.1-0.9-6.2-1.3c-2.1-0.5-4.1-1.1-6.1-1.6l-3.1-0.8l-1.5-0.4l-1.5-0.5c-2-0.6-4-1.3-6.1-1.9c-1-0.3-2-0.6-3-1
							l-3-1.1c-16-5.8-31.5-13.5-46-23.1c3.5,2.2,6.6,4.2,9.3,5.9c2.8,1.6,5.3,3,7.4,4.2c1.1,0.6,2,1.1,2.9,1.6
							c0.9,0.4,1.7,0.9,2.4,1.2c1.5,0.7,2.6,1.3,3.3,1.6c3.1,1.5,0.8,0.4-5.8-2.9c-6.4-3.6-17.2-9.5-29.9-19.1
							c-1.6-1.2-3.2-2.5-4.8-3.8c-0.8-0.6-1.7-1.3-2.5-2c-0.8-0.7-1.6-1.4-2.5-2.1c-1.7-1.4-3.4-2.9-5.1-4.4
							c-1.7-1.5-3.4-3.2-5.2-4.9c-0.9-0.8-1.8-1.7-2.6-2.5c-0.4-0.4-0.9-0.9-1.3-1.3c-0.4-0.5-0.9-0.9-1.3-1.4
							c-1.7-1.8-3.5-3.7-5.3-5.6c-0.4-0.5-0.9-0.9-1.3-1.4c-0.4-0.5-0.9-1-1.3-1.5c-0.9-1-1.7-2-2.6-3c-1.7-2-3.6-4.1-5.2-6.3
							c-0.7-0.8-1.6-2-2.9-3.6c-0.6-0.8-1.3-1.7-2-2.6C83.5,436.9,82.8,435.8,82,434.7z"/>
						<path fill="#D2D2D2" d="M184.4,99.8c28.6-9.9,59.5-13.9,89.2-11.5c-2.8-0.3-5.6-0.6-8.3-0.9l-2.1-0.2l-2.1-0.1
							c-1.4-0.1-2.8-0.1-4.2-0.2c-1.4-0.1-2.8-0.1-4.3-0.2c-1.5,0-2.9,0-4.4,0c-3,0-6.2,0-9.6,0.3c-2.3,0.2-4.6,0.4-6.9,0.5
							c-2.3,0.3-4.6,0.6-6.9,0.9c-1.2,0.2-2.3,0.3-3.5,0.5c-1.2,0.2-2.3,0.4-3.5,0.6c-2.3,0.4-4.7,0.9-7.1,1.3
							c-2.3,0.6-4.7,1.1-7.1,1.7c-1.2,0.3-2.4,0.6-3.5,0.9c-1.2,0.3-2.3,0.7-3.5,1c-2.3,0.7-4.7,1.4-7.1,2.1c-2.3,0.8-4.6,1.7-7,2.5
							c-1.2,0.4-2.3,0.8-3.5,1.3l-3.4,1.4c-2.3,1-4.6,1.9-6.9,2.9c-4.5,2.1-9,4.2-13.4,6.6c-8.8,4.6-17.1,9.9-25.1,15.4
							c-11.4,8-22.1,17.2-31.9,27.4c-9.8,10.2-18.7,21.4-26.5,33.4c-15.6,24.1-26.6,51.6-31.9,80.5c-5.3,28.9-4.9,59.2,1.5,88.5
							c6.4,29.3,18.7,57.6,36.4,82.4c0.4,0.6,0.9,1.3,1.4,2.1c0.6,0.8,1.2,1.6,1.9,2.5c1.4,1.8,2.9,3.8,4.5,5.9
							c1.7,2.1,3.5,4.1,5.3,6.2c0.9,1,1.8,2.1,2.7,3.1c0.9,0.9,1.8,1.9,2.7,2.8c-13-14.1-23.9-29.9-32.8-46.6
							c-9-16.6-15.5-34.4-19.9-52.5c-0.6-2.2-1.1-4.5-1.5-6.8c-0.5-2.3-1-4.5-1.4-6.8l-1.1-6.9l-0.5-3.4l-0.4-3.5l-0.7-6.9
							c-0.2-2.3-0.3-4.6-0.4-6.9c-0.4-4.6-0.3-9.2-0.4-13.8c0-1.1,0-2.3,0.1-3.4l0.1-3.4l0.1-3.4c0-1.1,0.1-2.3,0.2-3.4
							c0.4-4.6,0.7-9.1,1.4-13.7c0.3-2.3,0.6-4.5,0.9-6.8l1.2-6.7l0.6-3.4l0.8-3.3l1.6-6.7c4.6-17.7,11.3-34.6,19.9-50.6
							c8.6-15.9,19.3-30.6,31.4-43.9c12.1-13.3,25.9-25,40.8-34.9c1.9-1.2,3.7-2.5,5.6-3.7l5.8-3.4l2.9-1.7l3-1.6l5.9-3.1
							c2-1,4.1-1.9,6.1-2.9l3-1.4l1.5-0.7l1.6-0.6C176.1,103,180.2,101.2,184.4,99.8z"/>
						<path fill="#D2D2D2" d="M272.5,535.7c0.7,0,1.4,0,2.1-0.1l2.1-0.2l4.2-0.3l4.2-0.3c1.4-0.2,2.8-0.4,4.2-0.5
							c2.8-0.4,5.6-0.7,8.3-1.1c2.7-0.5,5.5-1,8.2-1.5c1.4-0.2,2.7-0.5,4.1-0.8c1.3-0.3,2.7-0.6,4-0.9c1.3-0.3,2.7-0.6,4-0.9
							c1.3-0.4,2.6-0.7,4-1.1c2.6-0.7,5.3-1.4,7.9-2.2c2.6-0.8,5.1-1.7,7.7-2.5c-2.3,0.7-4.8,1.4-7.3,2.1c-1.3,0.4-2.6,0.7-3.9,1
							c-1.3,0.3-2.6,0.7-4,1c-1.3,0.3-2.7,0.7-4.1,1c-1.4,0.3-2.8,0.6-4.2,0.9c-1.4,0.3-2.8,0.6-4.3,0.9c-1.4,0.3-2.9,0.6-4.3,0.8
							c-11.5,2.1-23.5,3.1-34.1,3.5c-30,1.1-60.2-3.7-88-14.1C210.9,531.2,241.2,536.8,272.5,535.7z"/>
						<path fill="#D2D2D2" d="M96.6,461.6l3.1,3.4c1.1,1.1,2.1,2.3,3.2,3.3c2.2,2.1,4.4,4.3,6.6,6.5c20.8,19.4,46,35.3,73.8,45.6
							c-29.1-11.5-55.3-28.9-77.4-50.9c-0.2,0.2-1.3-0.5-3-1.8C101.2,466.2,99.1,464,96.6,461.6z"/>
					</g>
				</g>
			</g>
		</g>
	</g>
</g>
<path fill="#B2DFED" d="M213.3,308.3c9.6-0.6,18.9-0.6,28.1-1.9c10-1.4,17.1-8.4,22.6-16.2c6.5-9.2,12-19.1,17.9-28.8
	c0.8-1.3,1.2-2.9,2.1-3.9c1.1-1.2,2.6-2,4-2.9c0.7,1.6,2.3,3.3,2.1,4.8c-1.6,12.5-3.4,25.1-5.3,37.6c-1.3,8.6-2.7,17.3-4.2,27.1
	c2.3-3.2,3.8-5.7,5.6-7.7c7.1-7.9,16.2-6.3,18.9,3.9c1.9,7.1,2,14.8,2.9,22.2c0.2,1.5,0,3,0.8,4.7c0.5-1,1-2.1,1.6-3
	c3.3-5.3,5.9-11.3,10.1-15.8c6.7-7.2,16.5-5.9,21.5,2.5c2.7,4.5,4.1,9.8,6.3,14.6c3.2,7.1,5.9,14.6,10.3,20.9
	c7.1,10.5,18,13.1,28.9,6.6c8.1-4.8,15.5-11,22.2-17.5c12.8-12.3,24.2-26.2,37.7-37.8c22.1-19,48.1-28.8,77.8-26.6
	c20.1,1.5,39.1,7.5,57.8,14.6c19.6,7.5,38.7,15.9,59.4,20.3c35.9,7.6,70.5,3.2,104.4-9.4c20-7.4,39-17.1,57.2-28.2
	c1.3-0.8,2.5-1.9,3.9-2.2c1.2-0.2,3.2,0.2,3.8,1.1c0.5,0.8-0.2,2.6-0.7,3.9c-0.2,0.5-1,0.8-1.6,1.1c-31.1,19.1-63.7,34.6-100.1,40.9
	c-33.8,5.9-66.6,2.5-98.6-10c-19.3-7.6-38.7-15.1-58.6-21.2c-44.3-13.5-82-0.8-113.9,31.4c-10.9,11-20.9,22.9-31.9,33.7
	c-5,4.9-11.3,8.8-17.7,11.9c-13,6.3-25.8,3.6-34.2-8.1c-5.2-7.3-8.3-16.1-12.2-24.3c-1.9-4-3.1-8.5-5.5-12.2
	c-3.7-5.9-9.1-6.4-12.9-0.6c-4.6,7-8.4,14.7-11.4,22.5c-2.6,6.8-3.3,14.2-5.3,21.3c-0.5,1.9-2.4,3.4-3.6,5c-0.9-1.9-2.5-3.7-2.5-5.6
	c-0.1-14.8,0.1-29.6,0-44.4c0-3.6-0.9-7.3-2-10.7c-1.5-4.8-4.2-5.4-7.5-1.7c-2.2,2.6-4.5,5.6-5.5,8.8c-4.9,16-9.3,32.2-13.9,48.3
	c-0.3,1-0.1,2.2-0.7,2.9c-1,1.4-2.5,2.5-3.7,3.7c-0.8-1.5-2.4-3.2-2.3-4.6c0.8-7.4,2-14.8,3.2-22.2c4.1-25.5,8.2-50.9,12.3-76.4
	c0.2-1,0.1-2,0.3-4.4c-8.1,12.6-15.4,24.2-27.4,31.7c-12.6,7.8-26.6,6-39.9,6c-1.3,10.2-2.1,19.9-3.9,29.5
	c-2.3,11.7-7.1,22.5-15,31.7c-1.1,1.3-2.3,2.5-3.5,3.5c-9.3,7.9-19.5,5.1-23.5-6.6c-3.4-9.9-1.8-19.8,0.7-29.5
	c4.8-18.6,15.9-30.8,35.5-33.9c0.8-0.1,1.6-0.5,2.9-0.8c-1.5-18.2-2.9-36.4-4.5-55.6c-0.9,1.8-1.7,3.1-2.3,4.5
	c-11,24.8-22.5,49.4-38.5,71.5c-13,18-28.4,33.5-47.8,44.7c-30.5,17.5-55.7,12.4-77-15.6c-12.7-16.8-20.3-35.8-24.6-56.2
	c-0.3-1.5,1.3-3.5,2-5.2c1.3,1.3,3.4,2.5,3.7,4c4.6,20.2,12.4,39,25.1,55.5c8.4,11,18.6,19.5,33.1,21.3c8.7,1.1,16.9-0.7,24.8-4
	c20.8-8.9,36.7-23.9,50.6-41.3c18.1-22.7,30.4-48.8,42.1-75.1c3.6-8.2,7-16.5,10.8-24.7c0.6-1.4,2.7-2.1,4.1-3.1
	c0.7,1.7,2.2,3.5,1.9,5.1c-3.4,18.5-0.7,36.9,0.8,55.3C212.2,294.8,212.7,301,213.3,308.3z M207.3,314.3c-8.2,0.7-15,2.9-20.2,8.2
	c-11.5,11.6-15.8,25.8-14.3,41.9c0.5,4.9,0.8,10.8,6.9,12.1c5.6,1.2,9.3-3.1,12.2-7.1C203.7,353.1,207.1,334.4,207.3,314.3z"/>
<circle fill="none" stroke="#000000" stroke-width="20" stroke-miterlimit="10" cx="263.4" cy="306" r="249.8"/>
</svg>
